Simulation
nRows=15
nColumns=15
endheader
time  TH_x TH_y TH_z SC_y  SC_z  SC_x  AC_y  AC_z  AC_x  GH_y  GH_z  GH_yy  EL_x  PS_y
1.424999999999999  0.000000  0.000000  0.000000  -29.685882038981855  4.009804869245983  30.367757614990836  58.48160432110912  12.566958982657859  4.1031949297661505  40.581742832206494  47.96420000518414  -36.5651031322002  24.79405343544067  120.000000
1.453499999999999  0.000000  0.000000  0.000000  -29.38955962407431  4.110572692028262  29.65282147566341  58.604306791467536  12.311202900124922  3.4670271917205207  41.60317161425455  47.46187549740189  -36.94495188107671  24.580745063331765  120.000000
1.4819999999999989  0.000000  0.000000  0.000000  -29.099304770342734  4.213645207355651  28.70244747970388  58.728884812508994  12.075901657473093  2.8692261479075203  42.73115139280788  46.856011362607326  -37.34143020015968  24.35501796436623  120.000000
1.5104999999999988  0.000000  0.000000  0.000000  -28.82167834722021  4.308330279358636  27.522641647597155  58.843835097624755  11.850333133815822  2.342767480675251  43.93911584039072  46.13466431785324  -37.72037812591765  24.119507571691095  120.000000
1.538999999999999  0.000000  0.000000  0.000000  -28.55588928415748  4.384252249722297  26.128418737616578  58.93177039570725  11.62807031948102  1.9191067293402522  45.19698301321485  45.28101956155517  -38.04167889681014  23.876107429716413  120.000000
1.567499999999999  0.000000  0.000000  0.000000  -28.294430607702168  4.43235051169039  24.546417850275077  58.97163694579633  11.410385283189347  1.6236150671016023  46.47400358158537  44.27403655449558  -38.2641723863923  23.62568378456377  120.000000
1.595999999999999  0.000000  0.000000  0.000000  -28.02469657888154  4.44781400188054  22.813845296703366  58.94445295980374  11.207939924379177  1.4693978314192053  47.74239202999249  43.09071564107879  -38.35222166081471  23.367863945349157  120.000000
1.624499999999999  0.000000  0.000000  0.000000  -27.7332300890388  4.430545298323173  20.972989770794424  58.83910048311967  11.037438225322258  1.4539628033051402  48.98080865189481  41.71021296579326  -38.28201284472992  23.10138473712121  120.000000
1.652999999999999  0.000000  0.000000  0.000000  -27.412306627458506  4.381587955181968  19.066516514694637  58.653128212877455  10.916343079624665  1.5621112620970745  50.175177795874475  40.12108225918546  -38.045740160876015  22.825001673797505  120.000000
1.6814999999999989  0.000000  0.000000  0.000000  -27.064592285060876  4.302599766909822  17.134494264055  58.39263691785981  10.858116984077473  1.7703116004795043  51.31711233618851  38.32838282477602  -37.65340875816151  22.537637900822233  120.000000
1.7099999999999989  0.000000  0.000000  0.000000  -26.702480059056008  4.192817458637575  15.211481987196766  58.07232370542185  10.868387181876113  2.051065499908  52.40323389771289  36.35503149963771  -37.12914629716685  22.239168427551423  120.000000
1.7384999999999988  0.000000  0.000000  0.000000  -26.34712069006495  4.049015284627318  13.324881651168573  57.712479560091246  10.943369979636643  2.3775591146937645  53.43316414536156  34.23870395033995  -36.503888858612214  21.931126640741468  120.000000
1.7669999999999988  0.000000  0.000000  0.000000  -26.025690980677176  3.8680686194000904  11.496544415307437  57.3334079146146  11.07314101251653  2.7251054532731507  54.40564903976012  32.02480068345463  -35.80671217427759  21.616213738021575  120.000000
1.7954999999999988  0.000000  0.000000  0.000000  -25.76485838773264  3.6474199772534286  9.745456341927625  56.951278959756436  11.244646669156099  3.073674679596383  55.317197090994384  29.757979223631565  -35.05647137873108  21.29852546369469  120.000000
1.8239999999999987  0.000000  0.000000  0.000000  -25.583488851429827  3.388647483209636  8.089640286311353  56.57755581514129  11.445184812812917  3.4086651533507903  56.16251976489632  27.475389158861727  -34.256545258572885  20.984211717578376  120.000000
